<svg width="24" height="24" viewBox="0 0 24 24" fill="none" xmlns="http://www.w3.org/2000/svg">
<path d="M17.0039 3.99609H6.99609C6.2007 3.99693 5.43812 4.31327 4.8757 4.8757C4.31327 5.43812 3.99693 6.2007 3.99609 6.99609V17.0039C3.99693 17.7993 4.31327 18.5619 4.8757 19.1243C5.43812 19.6867 6.2007 20.0031 6.99609 20.0039H17.0039C17.7993 20.0031 18.5619 19.6867 19.1243 19.1243C19.6867 18.5619 20.0031 17.7993 20.0039 17.0039V6.99609C20.0031 6.2007 19.6867 5.43812 19.1243 4.8757C18.5619 4.31327 17.7993 3.99693 17.0039 3.99609ZM6.99609 5.19609H17.0039C17.4811 5.19661 17.9387 5.38642 18.2761 5.72388C18.6136 6.06133 18.8034 6.51886 18.8039 6.99609V7.94121H5.19609V6.99609C5.19661 6.51886 5.38642 6.06133 5.72388 5.72388C6.06133 5.38642 6.51886 5.19661 6.99609 5.19609ZM17.0039 18.8039H6.99609C6.51886 18.8034 6.06133 18.6136 5.72388 18.2761C5.38642 17.9387 5.19661 17.4811 5.19609 17.0039V9.14121H18.8039V17.0039C18.8034 17.4811 18.6136 17.9387 18.2761 18.2761C17.9387 18.6136 17.4811 18.8034 17.0039 18.8039ZM8.21953 11.9637C8.27654 12.0178 8.32195 12.0829 8.35297 12.1552C8.384 12.2274 8.4 12.3052 8.4 12.3838C8.4 12.4624 8.384 12.5402 8.35297 12.6124C8.32195 12.6846 8.27654 12.7498 8.21953 12.8039C8.16899 12.8649 8.10243 12.9106 8.02734 12.9357C7.95662 12.9701 7.87856 12.9866 7.8 12.9837C7.72116 12.9854 7.643 12.9689 7.57148 12.9357C7.49654 12.9102 7.43005 12.8646 7.37929 12.8039C7.31841 12.7534 7.27292 12.6868 7.248 12.6117C7.21366 12.5408 7.19719 12.4625 7.2 12.3838C7.199 12.3051 7.21443 12.2271 7.2453 12.1548C7.27617 12.0825 7.32181 12.0174 7.37929 11.9637C7.46173 11.8794 7.56755 11.8218 7.68306 11.7983C7.79857 11.7748 7.91848 11.7865 8.02729 11.8318C8.1024 11.857 8.16898 11.9027 8.21953 11.9637ZM11.148 12.1559C11.1818 12.227 11.1982 12.3051 11.196 12.3838C11.1915 12.5394 11.1317 12.6884 11.0272 12.8039C10.9671 12.859 10.8982 12.9035 10.8233 12.9357C10.7526 12.9701 10.6746 12.9866 10.596 12.9837C10.5172 12.9854 10.439 12.9689 10.3675 12.9357C10.2948 12.9059 10.2293 12.861 10.1753 12.8039C10.1181 12.7502 10.0733 12.6846 10.044 12.6117C10.0164 12.5387 10.0002 12.4618 9.99605 12.3838C9.99896 12.3056 10.0152 12.2285 10.044 12.1559C10.0733 12.083 10.1181 12.0174 10.1753 11.9637C10.2261 11.9029 10.2925 11.8573 10.3675 11.8318C10.5136 11.772 10.6773 11.772 10.8233 11.8318C10.9005 11.8596 10.9702 11.9047 11.0272 11.9637C11.0808 12.0183 11.122 12.0839 11.148 12.1559ZM13.9558 12.1559C13.9875 12.2277 14.0039 12.3053 14.0039 12.3838C14.0039 12.4623 13.9875 12.5399 13.9558 12.6117C13.9083 12.7195 13.8312 12.8116 13.7335 12.8775C13.6359 12.9433 13.5215 12.9802 13.4038 12.9838C13.3249 12.9866 13.2464 12.9701 13.1753 12.9358C13.0969 12.9105 13.0266 12.8651 12.9714 12.8039C12.9178 12.7495 12.8769 12.6839 12.8519 12.6118C12.8202 12.5399 12.8038 12.4623 12.8038 12.3838C12.8038 12.3053 12.8202 12.2277 12.8519 12.1559C12.8769 12.0837 12.9178 12.0181 12.9714 11.9637C13.0562 11.8793 13.164 11.8217 13.2814 11.7983C13.3987 11.7748 13.5204 11.7865 13.6312 11.8319C13.7047 11.86 13.7706 11.9052 13.8233 11.9637C13.8806 12.0177 13.9257 12.0832 13.9559 12.1559H13.9558ZM16.7519 12.1559C16.7862 12.2268 16.8027 12.305 16.7999 12.3838C16.8015 12.4624 16.7851 12.5404 16.7519 12.6117C16.7261 12.6867 16.6803 12.7531 16.6195 12.8039C16.5653 12.8607 16.5001 12.906 16.4279 12.9369C16.3557 12.9678 16.2779 12.9838 16.1994 12.9838C16.1208 12.9838 16.0431 12.9678 15.9709 12.9369C15.8986 12.906 15.8335 12.8607 15.7792 12.8039C15.7184 12.7534 15.6729 12.6868 15.648 12.6117C15.6148 12.5404 15.5984 12.4624 15.6 12.3838C15.5972 12.305 15.6137 12.2268 15.648 12.1559C15.6755 12.0787 15.7205 12.009 15.7793 11.952C15.8643 11.8718 15.9707 11.8178 16.0856 11.7964C16.2005 11.7751 16.3192 11.7874 16.4273 11.8319C16.4994 11.8572 16.5651 11.8983 16.6195 11.952C16.6783 12.0092 16.7236 12.0789 16.752 12.1559H16.7519ZM8.3519 15.3357C8.38624 15.4067 8.40272 15.4849 8.3999 15.5637C8.40151 15.6423 8.38509 15.7203 8.3519 15.7916C8.32612 15.8665 8.28033 15.933 8.21948 15.9838C8.16894 16.0448 8.10238 16.0904 8.02729 16.1156C7.95657 16.15 7.87851 16.1664 7.79995 16.1636C7.72112 16.1652 7.64296 16.1488 7.57143 16.1156C7.49649 16.0901 7.43001 16.0445 7.37924 15.9838C7.31837 15.9333 7.2729 15.8667 7.248 15.7916C7.21481 15.7203 7.19839 15.6423 7.2 15.5637C7.19718 15.4849 7.21366 15.4067 7.248 15.3357C7.27551 15.2586 7.32042 15.1888 7.37924 15.1318C7.46433 15.0517 7.57067 14.9978 7.68558 14.9765C7.80049 14.9552 7.9191 14.9674 8.02724 15.0117C8.09938 15.0371 8.16502 15.0781 8.21943 15.1318C8.27826 15.1891 8.32355 15.2587 8.352 15.3357H8.3519ZM11.0273 15.1318C11.1349 15.25 11.1951 15.4038 11.196 15.5637C11.1915 15.7193 11.1317 15.8683 11.0273 15.9838C10.9703 16.0427 10.9005 16.0878 10.8234 16.1156C10.7527 16.15 10.6746 16.1664 10.596 16.1636C10.5172 16.1652 10.4391 16.1488 10.3675 16.1156C10.2926 16.0901 10.2261 16.0445 10.1753 15.9838C10.1181 15.93 10.0733 15.8645 10.0441 15.7916C10.0164 15.7186 10.0002 15.6417 9.99609 15.5637C10.0016 15.4028 10.0653 15.2493 10.1754 15.1318C10.23 15.0784 10.2956 15.0374 10.3676 15.0117C10.5137 14.952 10.6774 14.952 10.8234 15.0117C10.8991 15.037 10.9686 15.0779 11.0273 15.1318H11.0273ZM13.8234 15.1436C13.9354 15.2551 14.0001 15.4056 14.0039 15.5637C13.9992 15.6416 13.983 15.7184 13.9559 15.7916C13.9083 15.8994 13.8313 15.9915 13.7336 16.0574C13.6359 16.1232 13.5216 16.1601 13.4039 16.1637C13.3249 16.1665 13.2465 16.15 13.1753 16.1157C13.097 16.0904 13.0266 16.045 12.9714 15.9838C12.868 15.8678 12.8087 15.7191 12.8039 15.5637C12.8029 15.4072 12.863 15.2565 12.9714 15.1436C13.0266 15.0825 13.097 15.037 13.1753 15.0118C13.3214 14.952 13.4851 14.952 13.6312 15.0118C13.7048 15.0399 13.7707 15.0851 13.8234 15.1436H13.8234Z" fill="#A7AFC6"/>
</svg>
