<svg width="24" height="24" viewBox="0 0 24 24" fill="none" xmlns="http://www.w3.org/2000/svg">
<g clip-path="url(#clip0_3000_47733)">
<path d="M6.99823 12C6.99823 9.23859 9.23682 7 11.9982 7C12.7687 7 13.4898 7.18872 14.1417 7.5H23.1178C21.3368 3.104 17.033 0 11.9982 0C8.14606 0 4.72693 1.82233 2.53125 4.64392L7.04065 12.4211C7.02869 12.28 6.99823 12.1442 6.99823 12Z" fill="#F44336"/>
<path d="M12 16.9996C9.38281 16.9996 7.25964 14.9818 7.04242 12.4207L2.53302 4.64355C0.951172 6.67633 0 9.22437 0 11.9996C0 18.0721 4.51489 23.0781 10.3684 23.8759L14.8195 16.1259C14.0164 16.6757 13.0467 16.9996 12 16.9996Z" fill="#00B060"/>
<path d="M14.1422 7.5C15.8264 8.30438 16.9988 10.0091 16.9988 12C16.9988 13.7147 16.1338 15.2255 14.8182 16.1263L10.3672 23.8763C10.9021 23.9492 11.4438 24 11.9988 24C18.6262 24 23.9988 18.6274 23.9988 12C23.9988 10.4073 23.6817 8.89056 23.1183 7.5H14.1422Z" fill="#FFC107"/>
<path d="M12 16C14.2091 16 16 14.2091 16 12C16 9.79086 14.2091 8 12 8C9.79086 8 8 9.79086 8 12C8 14.2091 9.79086 16 12 16Z" fill="#1D99FF"/>
<path d="M16.457 9.76105L23.1207 7.5H14.1445C15.1445 7.97754 15.9561 8.77728 16.457 9.76105Z" fill="url(#paint0_linear_3000_47733)"/>
<path d="M7.83294 9.26052L2.54297 4.62012L7.03104 12.3937C6.94463 11.2889 7.2314 10.1862 7.83294 9.26052Z" fill="url(#paint1_linear_3000_47733)"/>
<path d="M11.7097 16.9786L10.3359 23.88L14.824 16.1064C13.9105 16.7336 12.8121 17.0367 11.7097 16.9786Z" fill="url(#paint2_linear_3000_47733)"/>
<path d="M12 24C18.6274 24 24 18.6274 24 12C24 5.37258 18.6274 0 12 0C5.37258 0 0 5.37258 0 12C0 18.6274 5.37258 24 12 24Z" fill="url(#paint3_linear_3000_47733)"/>
</g>
<defs>
<linearGradient id="paint0_linear_3000_47733" x1="16.3886" y1="5.25597" x2="20.8766" y2="9.74403" gradientUnits="userSpaceOnUse">
<stop stop-opacity="0.1"/>
<stop offset="1" stop-opacity="0"/>
</linearGradient>
<linearGradient id="paint1_linear_3000_47733" x1="1.88399" y1="5.2791" x2="8.0148" y2="11.4099" gradientUnits="userSpaceOnUse">
<stop stop-opacity="0.1"/>
<stop offset="1" stop-opacity="0"/>
</linearGradient>
<linearGradient id="paint2_linear_3000_47733" x1="10.6375" y1="18.0507" x2="13.4013" y2="20.8146" gradientUnits="userSpaceOnUse">
<stop stop-opacity="0.1"/>
<stop offset="1" stop-opacity="0"/>
</linearGradient>
<linearGradient id="paint3_linear_3000_47733" x1="1.12171" y1="6.92737" x2="22.8783" y2="17.0726" gradientUnits="userSpaceOnUse">
<stop stop-color="white" stop-opacity="0.2"/>
<stop offset="1" stop-color="white" stop-opacity="0"/>
</linearGradient>
<clipPath id="clip0_3000_47733">
<rect width="24" height="24" fill="white"/>
</clipPath>
</defs>
</svg>
