<svg width="24" height="24" viewBox="0 0 24 24" fill="none" xmlns="http://www.w3.org/2000/svg">
<mask id="mask0_2662_29780" style="mask-type:alpha" maskUnits="userSpaceOnUse" x="0" y="0" width="24" height="24">
<rect width="24" height="24" fill="#D9D9D9"/>
</mask>
<g mask="url(#mask0_2662_29780)">
<path d="M7.05781 16.7699C5.80781 16.7699 4.73715 16.3243 3.84581 15.4329C2.95381 14.5409 2.50781 13.4699 2.50781 12.2199C2.50781 10.9699 2.95381 9.89892 3.84581 9.00692C4.73715 8.11559 5.80781 7.66992 7.05781 7.66992H10.1078C10.3245 7.66992 10.5038 7.74492 10.6458 7.89492C10.7871 8.04492 10.8578 8.21992 10.8578 8.41992C10.8578 8.63659 10.7871 8.81559 10.6458 8.95692C10.5038 9.09892 10.3245 9.16992 10.1078 9.16992H7.05781C6.22448 9.16992 5.50781 9.46992 4.90781 10.0699C4.30781 10.6699 4.00781 11.3866 4.00781 12.2199C4.00781 13.0533 4.30781 13.7699 4.90781 14.3699C5.50781 14.9699 6.22448 15.2699 7.05781 15.2699H10.1078C10.3245 15.2699 10.5038 15.3406 10.6458 15.4819C10.7871 15.6239 10.8578 15.8033 10.8578 16.0199C10.8578 16.2199 10.7871 16.3949 10.6458 16.5449C10.5038 16.6949 10.3245 16.7699 10.1078 16.7699H7.05781ZM9.05781 12.9699C8.84115 12.9699 8.66215 12.8989 8.52081 12.7569C8.37881 12.6156 8.30781 12.4366 8.30781 12.2199C8.30781 12.0033 8.37881 11.8239 8.52081 11.6819C8.66215 11.5406 8.84115 11.4699 9.05781 11.4699H15.0578C15.2745 11.4699 15.4538 11.5406 15.5958 11.6819C15.7371 11.8239 15.8078 12.0033 15.8078 12.2199C15.8078 12.4366 15.7371 12.6156 15.5958 12.7569C15.4538 12.8989 15.2745 12.9699 15.0578 12.9699H9.05781ZM14.0078 16.7699C13.7911 16.7699 13.6121 16.6949 13.4708 16.5449C13.3288 16.3949 13.2578 16.2199 13.2578 16.0199C13.2578 15.8033 13.3288 15.6239 13.4708 15.4819C13.6121 15.3406 13.7911 15.2699 14.0078 15.2699H17.0578C17.8911 15.2699 18.6078 14.9699 19.2078 14.3699C19.8078 13.7699 20.1078 13.0533 20.1078 12.2199C20.1078 11.3866 19.8078 10.6699 19.2078 10.0699C18.6078 9.46992 17.8911 9.16992 17.0578 9.16992H14.0078C13.7911 9.16992 13.6121 9.09892 13.4708 8.95692C13.3288 8.81559 13.2578 8.63659 13.2578 8.41992C13.2578 8.21992 13.3288 8.04492 13.4708 7.89492C13.6121 7.74492 13.7911 7.66992 14.0078 7.66992H17.0578C18.3078 7.66992 19.3785 8.11559 20.2698 9.00692C21.1618 9.89892 21.6078 10.9699 21.6078 12.2199C21.6078 13.4699 21.1618 14.5409 20.2698 15.4329C19.3785 16.3243 18.3078 16.7699 17.0578 16.7699H14.0078Z" fill="#1D99FF"/>
</g>
</svg>
