<svg width="24" height="24" viewBox="0 0 24 24" fill="none" xmlns="http://www.w3.org/2000/svg">
<path d="M17.8919 4.1084H6.10547C5.30982 4.1084 4.54676 4.42447 3.98415 4.98708C3.42154 5.54969 3.10547 6.31275 3.10547 7.1084V14.1596C3.10547 14.9552 3.42154 15.7183 3.98415 16.2809C4.54676 16.8435 5.30982 17.1596 6.10547 17.1596H9.64307V18.6884H8.31347C8.15434 18.6884 8.00173 18.7516 7.8892 18.8641C7.77668 18.9767 7.71347 19.1293 7.71347 19.2884C7.71347 19.4475 7.77668 19.6001 7.8892 19.7127C8.00173 19.8252 8.15434 19.8884 8.31347 19.8884H15.6839C15.843 19.8884 15.9956 19.8252 16.1081 19.7127C16.2207 19.6001 16.2839 19.4475 16.2839 19.2884C16.2839 19.1293 16.2207 18.9767 16.1081 18.8641C15.9956 18.7516 15.843 18.6884 15.6839 18.6884H14.3543V17.1596H17.8919C18.2858 17.1596 18.6759 17.082 19.0399 16.9312C19.4039 16.7805 19.7346 16.5595 20.0132 16.2809C20.2918 16.0023 20.5127 15.6716 20.6635 15.3076C20.8143 14.9437 20.8919 14.5536 20.8919 14.1596V7.1084C20.8919 6.71443 20.8143 6.32432 20.6635 5.96035C20.5127 5.59637 20.2918 5.26565 20.0132 4.98708C19.7346 4.7085 19.4039 4.48752 19.0399 4.33676C18.6759 4.186 18.2858 4.1084 17.8919 4.1084ZM13.1543 18.6908H10.8431V17.1596H13.1543V18.6908ZM19.6919 14.1596C19.6919 14.637 19.5022 15.0948 19.1647 15.4324C18.8271 15.77 18.3693 15.9596 17.8919 15.9596H6.10547C5.62808 15.9596 5.17024 15.77 4.83268 15.4324C4.49511 15.0948 4.30547 14.637 4.30547 14.1596V7.1084C4.30547 6.63101 4.49511 6.17317 4.83268 5.83561C5.17024 5.49804 5.62808 5.3084 6.10547 5.3084H17.8919C18.3693 5.3084 18.8271 5.49804 19.1647 5.83561C19.5022 6.17317 19.6919 6.63101 19.6919 7.1084V14.1596Z" fill="black" fill-opacity="0.8"/>
</svg>
