<svg width="24" height="24" viewBox="0 0 24 24" fill="none" xmlns="http://www.w3.org/2000/svg">
<g clip-path="url(#clip0_3000_47777)">
<path d="M12 24C18.6274 24 24 18.6274 24 12C24 5.37258 18.6274 0 12 0C5.37258 0 0 5.37258 0 12C0 18.6274 5.37258 24 12 24Z" fill="url(#paint0_radial_3000_47777)"/>
<path d="M12.0013 23.7291C18.5539 23.7291 23.8658 18.4172 23.8658 11.8646C23.8658 5.31195 18.5539 0 12.0013 0C5.44866 0 0.136719 5.31195 0.136719 11.8646C0.136719 18.4172 5.44866 23.7291 12.0013 23.7291Z" fill="url(#paint1_linear_3000_47777)"/>
<path opacity="0.1" d="M20.6661 6.88306L20.1838 6.79852L20.5559 6.20673C20.5545 6.20367 19.7961 6.68567 19.7948 6.68268C19.6627 6.38971 19.3161 6.51752 19.0872 6.36853C19.1565 6.25995 19.1842 6.14648 19.2282 6.06134C19.2952 5.93195 19.53 5.72156 19.4903 5.60333L19.5403 5.30695L19.6229 5.12708L19.117 5.09131L18.8376 5.03296L18.5004 4.89941L18.4488 5.50061L18.319 5.63C18.3164 5.62799 18.313 5.62482 18.3104 5.62286C18.0171 5.40515 17.8896 4.84918 17.5298 4.97784C17.1699 5.10651 17.0313 4.77869 16.5731 4.98688C16.115 5.19501 16.2176 5.05786 16.0371 5.27429C15.8566 5.49066 15.9071 5.83801 15.8785 6.05719C15.8531 6.25275 15.7103 6.53394 15.7404 6.74951C15.7118 6.74237 15.6846 6.73816 15.6542 6.72668C15.4311 6.64197 15.5394 6.42322 15.2925 6.33423C15.1409 6.27948 15.1447 6.5224 15.2001 6.78302C15.1928 6.78967 15.0558 6.91144 14.8261 6.94531C14.59 6.9801 14.5781 6.73627 14.3191 6.77875C14.0601 6.82117 14.5432 7.35162 14.795 7.534C15.0468 7.71631 15.1125 8.17712 15.4589 8.07355C15.6077 8.02905 15.7107 8.05408 15.8149 8.08356C16.0079 8.19794 16.05 8.39673 16.4342 8.45361C16.6288 8.48242 16.7157 8.50647 16.7705 8.52112L16.7864 8.54327L17.0144 9.02069L17.2698 8.33783C17.2999 8.30701 17.3203 8.27924 17.3471 8.24683C17.4514 8.67645 17.5865 9.22864 17.5831 9.229C17.0413 9.2832 17.0597 9.90894 16.697 10.1964C16.5599 10.0265 16.3926 9.9209 16.2795 9.80414C16.1079 9.62671 15.8965 9.13617 15.6851 9.13617L15.236 8.89612L14.9916 8.6665L14.6613 9.45972L14.4169 9.8772L14.0206 10.3469L14.9586 10.7539L15.0964 11.032C15.0917 11.0353 15.0848 11.039 15.0803 11.0422C14.5725 11.3959 13.6105 11.301 13.6232 11.9483C13.6359 12.5957 13.0346 12.6417 13.122 13.4899C13.2093 14.3381 13.0443 14.0994 13.2946 14.506C13.5449 14.9126 14.13 15.0189 14.4667 15.1828C14.7672 15.3291 15.1419 15.7102 15.5045 15.778C15.4775 15.8201 15.4562 15.8615 15.4213 15.9041C15.1649 16.2169 14.872 15.9249 14.5958 16.2735C14.4261 16.4876 14.8184 16.6125 15.2669 16.6639C15.2737 16.6794 15.3955 16.965 15.326 17.3523C15.2545 17.7504 14.8565 17.6381 14.785 18.077C14.7136 18.5159 15.8261 18.0259 16.2548 17.7197C16.6835 17.4135 17.4592 17.5564 17.4796 16.944C17.4883 16.6812 17.5841 16.5292 17.6876 16.3776C17.9754 16.1293 18.3175 16.1688 18.616 15.5823C18.7672 15.2852 18.8527 15.1586 18.9057 15.0785L18.9499 15.0649L19.8397 14.9562L18.8806 14.1775C18.7748 13.9713 18.6326 13.7879 18.5488 13.6282C18.4663 13.4706 18.4102 13.2243 18.3297 13.0062C18.4538 12.9807 18.5729 12.9066 18.6852 12.7148C19.0018 12.1743 19.2838 12.3196 19.6682 11.5898C20.0524 10.8601 20.0048 11.1083 20.0992 10.6949C20.1936 10.2816 19.9943 10.0151 19.9308 9.77643C19.8673 9.53784 19.9216 9.00647 19.737 8.9035L19.4617 8.4751L19.4905 8.34882C19.7025 8.30804 19.8169 8.17328 19.9294 8.09894C20.051 8.01855 20.3585 7.94922 20.3814 7.8266L20.5694 7.5921L20.7803 7.57098L20.7874 7.24438L20.8956 6.94867L20.6661 6.88306ZM17.494 8.07373C17.5003 8.06665 17.5086 8.0556 17.5149 8.04907C17.5875 7.97327 17.7149 7.89569 17.8218 7.80969C17.8593 7.87433 17.9231 7.927 18.0515 7.95386C18.1698 7.97858 18.2437 8.0163 18.31 8.05682L17.979 8.6665L17.494 8.07373Z" fill="#333333"/>
<path d="M24 11.9788C24 18.6048 18.6261 23.9996 12 23.9996C5.37394 23.9996 0 18.6048 0 11.9788C0 9.85003 0.563455 7.84657 1.53388 6.11443C0.918266 5.23788 0.699113 3.50573 2.08696 2.06573C2.08696 2.61874 2.42088 3.56834 2.79651 4.2779C3.0991 4.84135 3.42296 5.24971 3.65217 5.19616C4.17466 5.0741 6 5.07095 6.26087 5.19616C6.68867 4.64309 7.73215 3.10921 9.3913 3.10921C8.46259 4.03792 5.80174 7.28312 10.4348 7.28312C10.9565 7.28312 11.4783 7.28312 11.4783 7.28312L8.34783 9.37008C8.34783 9.37008 8.70264 10.0587 8.34783 10.4136C7.9513 10.017 6.26087 10.8414 6.26087 11.9788C6.26087 13.1161 7.47128 14.5875 9.91304 14.5875C12.3548 14.5875 11.7391 13.544 13.0435 13.544C14.3478 13.544 14.6087 14.5875 14.6087 14.5875C12.8139 14.5875 11.5096 16.6744 9.3913 16.6744C10.4348 17.4466 11.1235 17.7179 12.5217 17.7179C15.9756 17.7179 18.7826 14.9109 18.7826 11.457C18.7826 10.0587 18.3235 8.77528 17.5513 7.73181C18.9495 8.77528 19.8887 10.3822 20.0556 12.2083C20.2435 11.4779 20.3478 10.6952 20.3478 9.89181C20.3478 6.76138 19.0956 2.56658 16.7896 0.980469C21.0365 2.82745 24 7.05352 24 11.9788Z" fill="url(#paint2_radial_3000_47777)"/>
<path opacity="0.1" d="M6.2605 11.9788C6.2605 10.8413 7.95093 10.017 8.34747 10.4135C8.63806 10.1229 8.45447 9.6142 8.37781 9.4375C8.35767 9.54523 8.31549 9.64838 8.23138 9.73248C7.82227 9.32336 6.07812 10.1738 6.07812 11.3474C6.07812 11.6214 6.15295 11.914 6.28937 12.2018C6.2796 12.1273 6.2605 12.0511 6.2605 11.9788Z" fill="#333333"/>
<path d="M20.3473 9.89178C20.3473 10.3298 20.2544 11.5753 20.0583 12.2075C20.0791 12.342 20.1047 12.475 20.1172 12.612C20.3111 11.8584 20.6125 10.0231 20.6125 9.19415C20.6125 6.92792 19.9742 4.12433 18.7728 2.08588C18.15 1.65967 17.4891 1.28491 16.7891 0.980469C19.0951 2.56653 20.3473 6.76135 20.3473 9.89178Z" fill="url(#paint3_linear_3000_47777)"/>
<path d="M17.5508 7.73242C18.3229 8.77588 18.782 10.0593 18.782 11.4576C18.782 12.0748 18.689 12.6699 18.522 13.2333C18.8264 12.4842 18.9976 11.6672 18.9976 10.8097C18.9976 10.1183 18.8829 9.45667 18.6819 8.83392C18.3509 8.42303 17.9752 8.04913 17.5508 7.73242Z" fill="url(#paint4_linear_3000_47777)"/>
<path opacity="0.1" d="M14.6079 14.588C14.6079 14.588 14.5436 14.3417 14.3313 14.0889C12.6606 14.3392 10.8171 16.2578 8.77734 16.2578C8.99628 16.4199 9.19843 16.5553 9.3963 16.6766C11.2198 16.7619 12.9717 14.588 14.6079 14.588Z" fill="#333333"/>
<path opacity="0.1" d="M2.2016 2.75427C2.13525 2.49799 2.0863 2.25543 2.0863 2.06641C2.04834 2.10583 2.02386 2.14734 1.98828 2.18719C2.04974 2.37469 2.12311 2.5658 2.2016 2.75427Z" fill="#333333"/>
<path opacity="0.1" d="M1.17548 5.34741C1.18439 5.3313 1.19055 5.31342 1.19958 5.29736C1.17798 5.26654 1.16125 5.22711 1.14062 5.19434C1.15259 5.24542 1.16113 5.29816 1.17548 5.34741Z" fill="#333333"/>
<path opacity="0.1" d="M11.9984 23.729C8.16349 23.729 4.69708 21.9761 2.42578 19.2373C4.61853 22.1097 8.10684 23.9999 11.9984 23.9999C15.89 23.9999 19.3528 22.1458 21.5455 19.2734C19.2742 22.0122 15.8334 23.729 11.9984 23.729Z" fill="#333333"/>
<path opacity="0.1" d="M10.299 7.27734L8.23047 8.65637C8.23047 8.65637 8.40717 9.00751 8.38733 9.34344L11.477 7.28363C11.477 7.28363 10.9553 7.28363 10.4335 7.28363C10.3839 7.28363 10.3469 7.27808 10.299 7.27734Z" fill="#333333"/>
<path opacity="0.1" d="M7.81772 6.18348C7.66016 4.96452 8.90453 3.59503 9.39018 3.10938C9.01628 3.10938 8.67815 3.19489 8.36681 3.3219C7.83379 4.0882 7.42197 5.52778 7.81772 6.18348Z" fill="#333333"/>
<path d="M16.7896 0.980835C16.829 1.00793 16.8657 1.04163 16.9044 1.07025C15.4081 0.389221 13.7512 0 12 0C8.30579 0 5.00677 1.68909 2.83075 4.3363C2.8194 4.31573 2.8078 4.29932 2.79651 4.27826C2.4209 3.56866 2.08698 2.61908 2.08698 2.0661C0.699097 3.5061 0.918274 5.23822 1.53387 6.11475C0.563477 7.84692 0 9.8504 0 11.9791C0 18.6052 5.37396 24 12 24C18.626 24 24 18.6052 24 11.9791C24 7.05389 21.0365 2.82782 16.7896 0.980835Z" fill="url(#paint5_linear_3000_47777)"/>
</g>
<defs>
<radialGradient id="paint0_radial_3000_47777" cx="0" cy="0" r="1" gradientUnits="userSpaceOnUse" gradientTransform="translate(6.4375 -0.562501) scale(21.0836)">
<stop stop-color="#15BEF0"/>
<stop offset="0.268032" stop-color="#0D91CE"/>
<stop offset="0.530391" stop-color="#066DB1"/>
<stop offset="0.742498" stop-color="#0257A0"/>
<stop offset="0.877771" stop-color="#004E9A"/>
</radialGradient>
<linearGradient id="paint1_linear_3000_47777" x1="12.0013" y1="0" x2="12.0013" y2="23.7291" gradientUnits="userSpaceOnUse">
<stop stop-opacity="0"/>
<stop offset="1" stop-opacity="0.4"/>
</linearGradient>
<radialGradient id="paint2_radial_3000_47777" cx="0" cy="0" r="1" gradientUnits="userSpaceOnUse" gradientTransform="translate(17.625 5.44118) rotate(141.761) scale(16.6495 17.0195)">
<stop stop-color="#FFF203"/>
<stop offset="0.298428" stop-color="#FBC40D"/>
<stop offset="0.776505" stop-color="#F47E1C"/>
<stop offset="1" stop-color="#F26322"/>
</radialGradient>
<linearGradient id="paint3_linear_3000_47777" x1="14.8595" y1="5.11843" x2="22.0484" y2="8.47066" gradientUnits="userSpaceOnUse">
<stop stop-color="white" stop-opacity="0.5"/>
<stop offset="1" stop-color="white" stop-opacity="0.2"/>
</linearGradient>
<linearGradient id="paint4_linear_3000_47777" x1="16.584" y1="9.80562" x2="19.4888" y2="11.1601" gradientUnits="userSpaceOnUse">
<stop stop-color="white" stop-opacity="0.5"/>
<stop offset="1" stop-color="white" stop-opacity="0.2"/>
</linearGradient>
<linearGradient id="paint5_linear_3000_47777" x1="-0.14026" y1="6.33005" x2="22.8747" y2="17.0621" gradientUnits="userSpaceOnUse">
<stop stop-color="white" stop-opacity="0.2"/>
<stop offset="1" stop-color="white" stop-opacity="0"/>
</linearGradient>
<clipPath id="clip0_3000_47777">
<rect width="24" height="24" fill="white"/>
</clipPath>
</defs>
</svg>
