<svg width="25" height="24" viewBox="0 0 25 24" fill="none" xmlns="http://www.w3.org/2000/svg">
<path d="M15.3985 3.7832H9.59766C8.80201 3.7832 8.03895 4.09927 7.47634 4.66188C6.91373 5.22449 6.59766 5.98755 6.59766 6.7832V17.216C6.59766 18.0117 6.91373 18.7747 7.47634 19.3373C8.03895 19.8999 8.80201 20.216 9.59766 20.216H15.3985C16.1941 20.216 16.9572 19.8999 17.5198 19.3373C18.0824 18.7747 18.3985 18.0117 18.3985 17.216V6.7832C18.3985 5.98755 18.0824 5.22449 17.5198 4.66188C16.9572 4.09927 16.1941 3.7832 15.3985 3.7832ZM17.1985 17.216C17.1985 17.6934 17.0088 18.1512 16.6712 18.4888C16.3337 18.8264 15.8758 19.016 15.3985 19.016H9.59766C9.12027 19.016 8.66243 18.8264 8.32486 18.4888C7.9873 18.1512 7.79766 17.6934 7.79766 17.216V6.7832C7.79766 6.30581 7.9873 5.84798 8.32486 5.51041C8.66243 5.17285 9.12027 4.9832 9.59766 4.9832H15.3985C15.8758 4.9832 16.3337 5.17285 16.6712 5.51041C17.0088 5.84798 17.1985 6.30581 17.1985 6.7832V17.216ZM13.4425 17.8964C13.4425 18.0555 13.3792 18.2081 13.2667 18.3207C13.1542 18.4332 13.0016 18.4964 12.8425 18.4964H12.1537C11.9945 18.4964 11.8419 18.4332 11.7294 18.3207C11.6169 18.2081 11.5537 18.0555 11.5537 17.8964C11.5537 17.7373 11.6169 17.5847 11.7294 17.4721C11.8419 17.3596 11.9945 17.2964 12.1537 17.2964H12.8425C13.0016 17.2964 13.1542 17.3596 13.2667 17.4721C13.3792 17.5847 13.4425 17.7373 13.4425 17.8964Z" fill="#A7AFC6"/>
</svg>
