<svg width="25" height="24" viewBox="0 0 25 24" fill="none" xmlns="http://www.w3.org/2000/svg">
<mask id="mask0_2662_29784" style="mask-type:alpha" maskUnits="userSpaceOnUse" x="0" y="0" width="25" height="24">
<rect x="0.5" width="24" height="24" fill="#D9D9D9"/>
</mask>
<g mask="url(#mask0_2662_29784)">
<path d="M17.0242 17.1254C16.8742 17.2754 16.6992 17.3461 16.4992 17.3374C16.2992 17.3294 16.1242 17.2504 15.9742 17.1004C15.8242 16.9504 15.7492 16.7754 15.7492 16.5754C15.7492 16.3754 15.8242 16.2004 15.9742 16.0504L20.0242 11.9754L15.9492 7.90039C15.8159 7.76706 15.7532 7.59606 15.7612 7.38739C15.7699 7.17939 15.8409 7.00872 15.9742 6.87539C16.1242 6.72539 16.2992 6.65039 16.4992 6.65039C16.6992 6.65039 16.8742 6.72539 17.0242 6.87539L21.5242 11.3754C21.7076 11.5587 21.7992 11.7671 21.7992 12.0004C21.7992 12.2337 21.7076 12.4421 21.5242 12.6254L17.0242 17.1254ZM7.97422 17.1254L3.47422 12.6254C3.29089 12.4421 3.19922 12.2337 3.19922 12.0004C3.19922 11.7671 3.29089 11.5587 3.47422 11.3754L7.97422 6.87539C8.12422 6.72539 8.30355 6.65039 8.51222 6.65039C8.72022 6.65039 8.89922 6.72539 9.04922 6.87539C9.19922 7.02539 9.27422 7.20039 9.27422 7.40039C9.27422 7.60039 9.19922 7.78372 9.04922 7.95039L4.97422 12.0254L9.04922 16.1004C9.18255 16.2337 9.24522 16.4047 9.23722 16.6134C9.22855 16.8214 9.15755 16.9921 9.02422 17.1254C8.87422 17.2754 8.69922 17.3504 8.49922 17.3504C8.29922 17.3504 8.12422 17.2754 7.97422 17.1254Z" fill="#A7AFC6"/>
</g>
</svg>
