<svg width="24" height="24" viewBox="0 0 24 24" fill="none" xmlns="http://www.w3.org/2000/svg">
<g clip-path="url(#clip0_3000_47829)">
<path d="M12 23.5C18.3513 23.5 23.5 18.3513 23.5 12C23.5 5.64873 18.3513 0.5 12 0.5C5.64873 0.5 0.5 5.64873 0.5 12C0.5 18.3513 5.64873 23.5 12 23.5Z" fill="url(#paint0_linear_3000_47829)"/>
<path d="M23.5 12C23.5 11.0044 23.3602 10.0436 23.1224 9.12238L19 5L13.5 13.5L5 19L9.12238 23.1224C10.0437 23.3602 11.0044 23.5 12 23.5C18.3513 23.5 23.5 18.3513 23.5 12Z" fill="url(#paint1_linear_3000_47829)"/>
<path d="M12 24C5.38281 24 0 18.6167 0 12C0 5.3833 5.38281 0 12 0C18.6172 0 24 5.3833 24 12C24 18.6167 18.6172 24 12 24ZM12 1C5.93457 1 1 5.93457 1 12C1 18.0654 5.93457 23 12 23C18.0654 23 23 18.0654 23 12C23 5.93457 18.0654 1 12 1Z" fill="#F2F2F2"/>
<path d="M19 5L10.5 10.5L13.5 13.5L19 5Z" fill="#EF373E"/>
<path opacity="0.1" d="M19 5L12 12L13.5 13.5L19 5Z" fill="#333333"/>
<path d="M5 19L13.5 13.5L10.5 10.5L5 19Z" fill="white"/>
<path opacity="0.1" d="M5 19L12 12L13.5 13.5L5 19Z" fill="#333333"/>
<path opacity="0.1" d="M12.0019 23.7498C6.58746 23.7498 2.00085 20.1875 0.482623 15.2725C0.369513 14.9063 0.273434 14.5326 0.195312 14.1523C0.252572 14.4698 0.322309 14.7828 0.403997 15.091C1.76453 20.2237 6.44036 23.9998 12.0019 23.9998C17.4343 23.9998 22.0164 20.4255 23.4937 15.4794C23.6196 15.0577 23.723 14.626 23.8025 14.1857C23.732 14.5285 23.647 14.8658 23.5482 15.197C22.065 20.1643 17.4562 23.7498 12.0019 23.7498Z" fill="#333333"/>
<path opacity="0.2" d="M12.0018 0.25C17.4075 0.25 21.9819 3.78333 23.5193 8.65314C22.0693 3.65613 17.4664 0 12.0018 0C6.53723 0 1.93439 3.65613 0.484375 8.65314C2.02173 3.78333 6.59613 0.25 12.0018 0.25Z" fill="white"/>
<path d="M12 24C18.6274 24 24 18.6274 24 12C24 5.37258 18.6274 0 12 0C5.37258 0 0 5.37258 0 12C0 18.6274 5.37258 24 12 24Z" fill="url(#paint2_linear_3000_47829)"/>
</g>
<defs>
<linearGradient id="paint0_linear_3000_47829" x1="12" y1="0.5" x2="12" y2="23.5" gradientUnits="userSpaceOnUse">
<stop stop-color="#15BEF0"/>
<stop offset="0.155213" stop-color="#18B2E8"/>
<stop offset="0.432352" stop-color="#2094D2"/>
<stop offset="0.796661" stop-color="#2E62AF"/>
<stop offset="1" stop-color="#374499"/>
</linearGradient>
<linearGradient id="paint1_linear_3000_47829" x1="12" y1="12" x2="20.1317" y2="20.1317" gradientUnits="userSpaceOnUse">
<stop stop-opacity="0.1"/>
<stop offset="1" stop-opacity="0"/>
</linearGradient>
<linearGradient id="paint2_linear_3000_47829" x1="1.12171" y1="6.92737" x2="22.8783" y2="17.0726" gradientUnits="userSpaceOnUse">
<stop stop-color="white" stop-opacity="0.2"/>
<stop offset="1" stop-color="white" stop-opacity="0"/>
</linearGradient>
<clipPath id="clip0_3000_47829">
<rect width="24" height="24" fill="white"/>
</clipPath>
</defs>
</svg>
