<svg width="24" height="24" viewBox="0 0 24 24" fill="none" xmlns="http://www.w3.org/2000/svg">
<path d="M20.2148 14.9004L20.2148 9.09961C20.2148 8.30396 19.8988 7.5409 19.3362 6.97829C18.7736 6.41568 18.0105 6.09961 17.2148 6.09961L6.78204 6.09961C5.98639 6.09961 5.22333 6.41568 4.66072 6.97829C4.09811 7.5409 3.78204 8.30396 3.78204 9.09961L3.78204 14.9004C3.78204 15.6961 4.09811 16.4591 4.66072 17.0217C5.22333 17.5843 5.98639 17.9004 6.78204 17.9004L17.2148 17.9004C18.0105 17.9004 18.7736 17.5843 19.3362 17.0217C19.8988 16.4591 20.2148 15.6961 20.2148 14.9004ZM6.78204 16.7004C6.30465 16.7004 5.84682 16.5108 5.50925 16.1732C5.17168 15.8356 4.98204 15.3778 4.98204 14.9004L4.98204 9.09961C4.98204 8.62222 5.17169 8.16438 5.50925 7.82682C5.84682 7.48925 6.30465 7.29961 6.78204 7.29961L17.2148 7.29961C17.6922 7.29961 18.1501 7.48925 18.4876 7.82682C18.8252 8.16438 19.0148 8.62222 19.0148 9.09961L19.0148 14.9004C19.0148 15.3778 18.8252 15.8356 18.4876 16.1732C18.1501 16.5108 17.6922 16.7004 17.2148 16.7004L6.78204 16.7004ZM6.10164 12.9444C5.94251 12.9444 5.7899 12.8812 5.67738 12.7687C5.56486 12.6562 5.50164 12.5035 5.50164 12.3444L5.50164 11.6556C5.50164 11.4965 5.56486 11.3439 5.67738 11.2313C5.7899 11.1188 5.94251 11.0556 6.10164 11.0556C6.26077 11.0556 6.41338 11.1188 6.52591 11.2313C6.63843 11.3439 6.70164 11.4965 6.70164 11.6556L6.70164 12.3444C6.70164 12.5035 6.63843 12.6562 6.52591 12.7687C6.41338 12.8812 6.26077 12.9444 6.10164 12.9444Z" fill="black" fill-opacity="0.8"/>
<rect x="5.5" y="9" width="1.2" height="6" rx="0.6" fill="black" fill-opacity="0.8"/>
</svg>
