<svg width="24" height="24" viewBox="0 0 24 24" fill="none" xmlns="http://www.w3.org/2000/svg">
<path d="M11.9997 11.5548C12.756 11.5548 13.4953 11.3306 14.1241 10.9104C14.7529 10.4902 15.243 9.89304 15.5324 9.19433C15.8219 8.49563 15.8976 7.72679 15.75 6.98504C15.6025 6.2433 15.2383 5.56196 14.7036 5.02719C14.1688 4.49243 13.4875 4.12824 12.7457 3.9807C12.004 3.83316 11.2351 3.90888 10.5364 4.1983C9.83771 4.48771 9.24051 4.97782 8.82034 5.60664C8.40018 6.23546 8.17592 6.97475 8.17592 7.73103C8.17703 8.74482 8.58025 9.71677 9.29711 10.4336C10.014 11.1505 10.9859 11.5537 11.9997 11.5548ZM11.9997 5.10723C12.5187 5.10723 13.0259 5.26111 13.4574 5.54942C13.8889 5.83773 14.2252 6.24751 14.4238 6.72694C14.6224 7.20638 14.6743 7.73394 14.5731 8.24291C14.4719 8.75187 14.222 9.21939 13.855 9.58634C13.4881 9.95328 13.0206 10.2032 12.5116 10.3044C12.0026 10.4057 11.4751 10.3537 10.9956 10.1551C10.5162 9.95651 10.1064 9.62022 9.81811 9.18873C9.5298 8.75725 9.37592 8.24997 9.37592 7.73103C9.37662 7.03537 9.65328 6.3684 10.1452 5.87649C10.6371 5.38459 11.3041 5.10793 11.9997 5.10723ZM17.9877 16.9548V19.4931C17.9877 19.6522 17.9245 19.8048 17.812 19.9173C17.6995 20.0299 17.5468 20.0931 17.3877 20.0931C17.2286 20.0931 17.076 20.0299 16.9635 19.9173C16.8509 19.8048 16.7877 19.6522 16.7877 19.4931V16.9548C16.7869 16.1594 16.4706 15.3969 15.9081 14.8344C15.3457 14.272 14.5831 13.9557 13.7877 13.9548H10.2117C9.41632 13.9557 8.65374 14.272 8.09131 14.8344C7.52888 15.3969 7.21254 16.1594 7.21172 16.9548V19.4931C7.21172 19.6522 7.1485 19.8048 7.03598 19.9173C6.92346 20.0299 6.77085 20.0931 6.61172 20.0931C6.45259 20.0931 6.29998 20.0299 6.18745 19.9173C6.07493 19.8048 6.01172 19.6522 6.01172 19.4931V16.9548C6.01305 15.8413 6.45598 14.7738 7.24334 13.9865C8.03071 13.1991 9.09822 12.7562 10.2117 12.7548H13.7877C14.9012 12.7562 15.9687 13.1991 16.7561 13.9865C17.5435 14.7738 17.9864 15.8413 17.9877 16.9548Z" fill="#A7AFC6"/>
</svg>
