<svg width="24" height="24" viewBox="0 0 24 24" fill="none" xmlns="http://www.w3.org/2000/svg">
<mask id="mask0_2662_30493" style="mask-type:alpha" maskUnits="userSpaceOnUse" x="0" y="0" width="24" height="24">
<rect y="24" width="24" height="24" transform="rotate(-90 0 24)" fill="#D9D9D9"/>
</mask>
<g mask="url(#mask0_2662_30493)">
<path d="M17.1234 10.5254L12.6234 15.0254C12.5401 15.1087 12.4441 15.1714 12.3354 15.2134C12.2274 15.2547 12.1151 15.2754 11.9984 15.2754C11.8818 15.2754 11.7691 15.2547 11.6604 15.2134C11.5524 15.1714 11.4568 15.1087 11.3734 15.0254L6.87344 10.5254C6.72344 10.3754 6.64844 10.2004 6.64844 10.0004C6.64844 9.80039 6.72344 9.62539 6.87344 9.47539C7.02344 9.32539 7.19844 9.25039 7.39844 9.25039C7.59844 9.25039 7.77344 9.32539 7.92344 9.47539L11.9984 13.5504L16.0734 9.47539C16.2234 9.32539 16.3984 9.25039 16.5984 9.25039C16.7984 9.25039 16.9734 9.32539 17.1234 9.47539C17.2734 9.62539 17.3484 9.80039 17.3484 10.0004C17.3484 10.2004 17.2734 10.3754 17.1234 10.5254Z" fill="#808080"/>
</g>
</svg>
