<svg width="24" height="24" viewBox="0 0 24 24" fill="none" xmlns="http://www.w3.org/2000/svg">
<mask id="mask0_2662_30481" style="mask-type:alpha" maskUnits="userSpaceOnUse" x="0" y="0" width="24" height="24">
<rect x="24" width="24" height="24" transform="rotate(90 24 0)" fill="#D9D9D9"/>
</mask>
<g mask="url(#mask0_2662_30481)">
<path d="M6.87656 13.4746L11.3766 8.97461C11.4599 8.89128 11.5559 8.82861 11.6646 8.78661C11.7726 8.74528 11.8849 8.72461 12.0016 8.72461C12.1182 8.72461 12.2309 8.74528 12.3396 8.78661C12.4476 8.82861 12.5432 8.89128 12.6266 8.97461L17.1266 13.4746C17.2766 13.6246 17.3516 13.7996 17.3516 13.9996C17.3516 14.1996 17.2766 14.3746 17.1266 14.5246C16.9766 14.6746 16.8016 14.7496 16.6016 14.7496C16.4016 14.7496 16.2266 14.6746 16.0766 14.5246L12.0016 10.4496L7.92656 14.5246C7.77656 14.6746 7.60156 14.7496 7.40156 14.7496C7.20156 14.7496 7.02656 14.6746 6.87656 14.5246C6.72656 14.3746 6.65156 14.1996 6.65156 13.9996C6.65156 13.7996 6.72656 13.6246 6.87656 13.4746Z" fill="#1D99FF"/>
</g>
</svg>
