<svg width="24" height="24" viewBox="0 0 24 24" fill="none" xmlns="http://www.w3.org/2000/svg">
<path d="M17.9423 6.05709C16.7673 4.88313 15.2705 4.0839 13.6413 3.76043C12.0121 3.43696 10.3235 3.60378 8.78908 4.23979C7.25465 4.8758 5.94322 5.95245 5.02057 7.33365C4.09792 8.71485 3.60547 10.3386 3.60547 11.9996C3.60547 13.6606 4.09792 15.2844 5.02057 16.6656C5.94322 18.0468 7.25465 19.1234 8.78908 19.7594C10.3235 20.3954 12.0121 20.5623 13.6413 20.2388C15.2705 19.9153 16.7673 19.1161 17.9423 17.9421C19.516 16.3648 20.3998 14.2277 20.3998 11.9996C20.3998 9.77152 19.516 7.6344 17.9423 6.05709ZM17.0939 17.0937C16.0864 18.1013 14.8028 18.7875 13.4053 19.0655C12.0078 19.3435 10.5592 19.2008 9.24283 18.6556C7.92641 18.1103 6.80124 17.1869 6.00962 16.0022C5.21799 14.8175 4.79546 13.4246 4.79546 11.9997C4.79546 10.5749 5.21799 9.18199 6.00962 7.99725C6.80124 6.81252 7.92641 5.88914 9.24283 5.34388C10.5592 4.79863 12.0078 4.65598 13.4053 4.93399C14.8028 5.212 16.0864 5.89817 17.0939 6.90573C18.4424 8.25808 19.1997 10.0899 19.1997 11.9997C19.1997 13.9095 18.4424 15.7414 17.0939 17.0937ZM14.8019 10.0455L12.8482 11.9996L14.8023 13.9537C14.8596 14.009 14.9053 14.0752 14.9368 14.1485C14.9682 14.2217 14.9848 14.3004 14.9855 14.3801C14.9861 14.4597 14.971 14.5387 14.9408 14.6125C14.9106 14.6862 14.8661 14.7532 14.8097 14.8095C14.7534 14.8659 14.6864 14.9104 14.6127 14.9406C14.5389 14.9708 14.4599 14.9859 14.3803 14.9852C14.3006 14.9846 14.2219 14.968 14.1487 14.9366C14.0755 14.9051 14.0092 14.8594 13.9539 14.8021L11.9998 12.848L10.0457 14.8021C9.93258 14.9114 9.78102 14.9719 9.6237 14.9705C9.46638 14.9691 9.31589 14.906 9.20465 14.7948C9.0934 14.6835 9.0303 14.5331 9.02894 14.3757C9.02757 14.2184 9.08805 14.0669 9.19734 13.9537L11.1514 11.9996L9.19734 10.0455C9.08805 9.93237 9.02757 9.78081 9.02894 9.62349C9.0303 9.46617 9.0934 9.31569 9.20465 9.20444C9.31589 9.0932 9.46638 9.0301 9.6237 9.02873C9.78102 9.02736 9.93258 9.08784 10.0457 9.19713L11.9998 11.1512L13.9539 9.19713C14.0671 9.08784 14.2186 9.02736 14.3759 9.02873C14.5333 9.0301 14.6837 9.0932 14.795 9.20444C14.9062 9.31569 14.9693 9.46617 14.9707 9.62349C14.9721 9.78081 14.9116 9.93237 14.8023 10.0455H14.8019Z" fill="#DF2935"/>
</svg>
