<svg width="24" height="24" viewBox="0 0 24 24" fill="none" xmlns="http://www.w3.org/2000/svg">
<path d="M19.4247 5.17324V10.0656C19.4247 10.2248 19.3615 10.3774 19.2489 10.4899C19.1364 10.6024 18.9838 10.6656 18.8247 10.6656C18.6655 10.6656 18.5129 10.6024 18.4004 10.4899C18.2879 10.3774 18.2247 10.2248 18.2247 10.0656V6.62164L11.0247 13.8216C10.9115 13.9309 10.7599 13.9914 10.6026 13.99C10.4453 13.9887 10.2948 13.9256 10.1836 13.8143C10.0723 13.7031 10.0092 13.5526 10.0079 13.3953C10.0065 13.238 10.067 13.0864 10.1763 12.9732L17.3763 5.77324H13.9323C13.7731 5.77324 13.6205 5.71003 13.508 5.59751C13.3955 5.48498 13.3323 5.33237 13.3323 5.17324C13.3323 5.01411 13.3955 4.8615 13.508 4.74898C13.6205 4.63646 13.7731 4.57324 13.9323 4.57324H18.8235C18.9826 4.57324 19.1352 4.63646 19.2477 4.74898C19.3603 4.8615 19.4235 5.01411 19.4235 5.17324H19.4247ZM15.5475 11.0844C15.4729 11.1102 15.4041 11.1504 15.3451 11.2028C15.286 11.2552 15.2379 11.3187 15.2035 11.3897C15.169 11.4607 15.1489 11.5378 15.1443 11.6166C15.1397 11.6954 15.1507 11.7743 15.1767 11.8488C15.3496 12.3444 15.4361 12.866 15.4323 13.3908C15.4335 14.3466 15.151 15.2813 14.6208 16.0765C14.0905 16.8717 13.3362 17.4917 12.4534 17.858C11.5706 18.2243 10.5989 18.3205 9.66145 18.1343C8.72397 17.9481 7.86279 17.488 7.18694 16.8122C6.51109 16.1363 6.05096 15.2751 5.86478 14.3377C5.67861 13.4002 5.77476 12.4285 6.14108 11.5457C6.50739 10.6629 7.1274 9.90861 7.92261 9.37834C8.71781 8.84807 9.65247 8.56566 10.6083 8.56684C11.1334 8.56304 11.6553 8.64908 12.1515 8.82124C12.2266 8.8504 12.3069 8.86413 12.3874 8.86159C12.468 8.85906 12.5472 8.84032 12.6204 8.80649C12.6935 8.77266 12.7591 8.72444 12.8132 8.66471C12.8673 8.60497 12.9089 8.53495 12.9353 8.45881C12.9618 8.38268 12.9726 8.30199 12.9672 8.22158C12.9618 8.14116 12.9402 8.06266 12.9038 7.99075C12.8674 7.91885 12.8168 7.85503 12.7552 7.80309C12.6936 7.75115 12.6221 7.71216 12.5451 7.68844C11.9221 7.47312 11.2674 7.3644 10.6083 7.36684C9.41513 7.36566 8.24847 7.71845 7.25592 8.38058C6.26337 9.04271 5.48956 9.98441 5.03242 11.0865C4.57528 12.1886 4.45536 13.4015 4.68784 14.5718C4.92032 15.742 5.49474 16.817 6.33841 17.6607C7.18209 18.5044 8.25708 19.0788 9.42734 19.3113C10.5976 19.5437 11.8105 19.4238 12.9126 18.9667C14.0147 18.5095 14.9564 17.7357 15.6185 16.7432C16.2807 15.7506 16.6335 14.584 16.6323 13.3908C16.6356 12.7314 16.5273 12.0761 16.3119 11.4528C16.2859 11.3785 16.2455 11.3099 16.193 11.2512C16.1405 11.1924 16.0769 11.1445 16.006 11.1103C15.935 11.0761 15.858 11.0562 15.7793 11.0518C15.7006 11.0473 15.6218 11.0584 15.5475 11.0844Z" fill="#DF2935"/>
</svg>
