<svg width="24" height="24" viewBox="0 0 24 24" fill="none" xmlns="http://www.w3.org/2000/svg">
<path d="M19.6261 9.90761L19.0296 9.75233C18.9043 9.36333 18.7463 8.98562 18.5574 8.62324L18.8855 8.0619C19.0241 7.81083 19.0774 7.52149 19.0372 7.2375C18.9971 6.95352 18.8657 6.69029 18.6628 6.48751L17.5108 5.33497C17.3051 5.13033 17.038 4.99874 16.7504 4.96033C16.4628 4.92191 16.1705 4.97879 15.9183 5.12227L15.3757 5.44043C15.0133 5.25117 14.6354 5.09337 14.246 4.96875L14.0913 4.37462C14.0186 4.09109 13.8536 3.83982 13.6223 3.66042C13.3911 3.48102 13.1067 3.38369 12.814 3.38379H11.1828C10.8903 3.38366 10.6061 3.48075 10.3749 3.65978C10.1437 3.83881 9.97851 4.08964 9.90541 4.37279L9.75078 4.96874C9.36151 5.09361 8.98359 5.25141 8.6211 5.44042L8.06094 5.11288C7.80985 4.97392 7.52034 4.92048 7.23618 4.96065C6.95202 5.00083 6.68867 5.13242 6.48594 5.33554L5.33281 6.48867C5.12885 6.69444 4.99774 6.96125 4.95944 7.24844C4.92115 7.53562 4.97778 7.82746 5.1207 8.07949L5.43946 8.62324C5.25001 8.98539 5.092 9.36315 4.96718 9.75233L4.37188 9.90761C4.08891 9.98065 3.83822 10.1456 3.65919 10.3766C3.48017 10.6076 3.38295 10.8915 3.38281 11.1838V12.8162C3.38293 13.1083 3.47999 13.3921 3.65878 13.623C3.83757 13.854 4.08797 14.0191 4.3707 14.0924L4.96718 14.2477C5.09251 14.6367 5.2505 15.0144 5.43946 15.3767L5.11133 15.9381C4.97269 16.1892 4.91944 16.4785 4.9596 16.7625C4.99976 17.0465 5.13116 17.3097 5.33399 17.5125L6.48599 18.665C6.69187 18.8694 6.95896 19.0008 7.2465 19.0392C7.53405 19.0776 7.82627 19.0209 8.07857 18.8777L8.62115 18.5596C8.98352 18.7488 9.36147 18.9066 9.75083 19.0312L9.90552 19.6254C9.97821 19.9089 10.1432 20.1602 10.3745 20.3396C10.6058 20.519 10.8902 20.6163 11.1829 20.6162H12.8141C13.1066 20.6163 13.3908 20.5192 13.622 20.3402C13.8532 20.1611 14.0184 19.9103 14.0915 19.6271L14.2461 19.0312C14.6354 18.9064 15.0133 18.7486 15.3758 18.5596L15.936 18.8871C16.1871 19.0261 16.4766 19.0796 16.7608 19.0394C17.0449 18.9993 17.3083 18.8676 17.511 18.6644L18.6641 17.5113C18.8681 17.3055 18.9992 17.0387 19.0375 16.7515C19.0758 16.4644 19.0191 16.1725 18.8762 15.9205L18.5575 15.3767C18.7469 15.0146 18.9049 14.6368 19.0297 14.2476L19.6251 14.0924C19.908 14.0193 20.1587 13.8543 20.3377 13.6234C20.5168 13.3924 20.614 13.1084 20.6141 12.8162V11.1838C20.614 10.8917 20.5169 10.6079 20.3381 10.3769C20.1593 10.146 19.9089 9.9809 19.6261 9.90761ZM19.414 12.8162C19.4144 12.8428 19.4057 12.8687 19.3892 12.8896C19.3728 12.9105 19.3497 12.9252 19.3238 12.931L18.3992 13.1713C18.2967 13.1979 18.2032 13.2512 18.1281 13.3257C18.0529 13.4002 17.9989 13.4933 17.9714 13.5955C17.8324 14.1151 17.6234 14.6134 17.3504 15.0768C17.2956 15.1691 17.2665 15.2744 17.2661 15.3817C17.2657 15.4891 17.294 15.5946 17.348 15.6873L17.8308 16.51C17.8455 16.5339 17.8518 16.562 17.8489 16.5899C17.8459 16.6177 17.8338 16.6438 17.8144 16.6641L16.6624 17.8155C16.6451 17.8336 16.6226 17.8459 16.5981 17.8506C16.5735 17.8554 16.548 17.8523 16.5253 17.8419L15.6862 17.3503C15.5936 17.296 15.488 17.2675 15.3806 17.2679C15.2732 17.2684 15.1679 17.2976 15.0757 17.3526C14.6122 17.6261 14.1134 17.8346 13.5932 17.9725C13.4912 18.0004 13.3982 18.0547 13.3237 18.1298C13.2493 18.205 13.1959 18.2985 13.169 18.4009L12.9288 19.3266C12.9228 19.3525 12.9081 19.3755 12.8872 19.3918C12.8663 19.4081 12.8405 19.4168 12.8139 19.4163H11.1828C11.156 19.4167 11.1299 19.4078 11.109 19.3911C11.088 19.3745 11.0735 19.351 11.0679 19.3249L10.8277 18.4009C10.8008 18.2985 10.7474 18.2051 10.673 18.1299C10.5985 18.0547 10.5055 18.0004 10.4035 17.9726C9.8833 17.8347 9.38451 17.6261 8.92104 17.3526C8.82874 17.2978 8.72344 17.2687 8.61609 17.2683C8.50873 17.2679 8.40321 17.2962 8.31049 17.3503L7.48901 17.8325C7.46496 17.847 7.43683 17.8533 7.40891 17.8503C7.38098 17.8474 7.35478 17.8353 7.33432 17.8161L6.18352 16.6653C6.16533 16.648 6.15297 16.6254 6.14815 16.6008C6.14332 16.5761 6.14626 16.5505 6.15656 16.5276L6.64874 15.6874C6.70277 15.5946 6.73104 15.4891 6.73063 15.3818C6.73021 15.2744 6.70113 15.1691 6.64638 15.0768C6.37331 14.6134 6.16437 14.1151 6.02528 13.5955C5.99782 13.4934 5.94377 13.4003 5.86864 13.3257C5.79351 13.2512 5.69997 13.1979 5.59756 13.1713L4.67177 12.9311C4.64608 12.9249 4.62325 12.9102 4.60706 12.8893C4.59087 12.8684 4.58228 12.8427 4.5827 12.8163V11.1838C4.5823 11.1572 4.59105 11.1313 4.60748 11.1104C4.62391 11.0895 4.64702 11.0748 4.67294 11.0689L5.59758 10.8287C5.7 10.8021 5.79353 10.7488 5.86866 10.6743C5.9438 10.5998 5.99785 10.5067 6.02531 10.4045C6.16438 9.8849 6.37331 9.38659 6.64638 8.92319C6.70112 8.83087 6.7302 8.7256 6.73062 8.61827C6.73104 8.51094 6.70279 8.40545 6.64878 8.31269L6.16596 7.49003C6.15127 7.46615 6.14492 7.43807 6.14789 7.41018C6.15086 7.3823 6.16298 7.35619 6.18236 7.33593L7.33436 6.18457C7.35127 6.1659 7.37378 6.15323 7.39851 6.14847C7.42324 6.14371 7.44885 6.14711 7.47148 6.15817L8.31054 6.64976C8.40334 6.70365 8.50882 6.73183 8.61613 6.73142C8.72344 6.73101 8.8287 6.70201 8.92109 6.64742C9.38455 6.37401 9.88332 6.16546 10.4035 6.02759C10.5056 5.99972 10.5985 5.94545 10.673 5.87025C10.7475 5.79505 10.8008 5.70156 10.8277 5.59919L11.0679 4.67341C11.0739 4.64758 11.0886 4.62458 11.1095 4.60826C11.1304 4.59195 11.1562 4.5833 11.1828 4.58375H12.814C12.8408 4.58335 12.8668 4.59225 12.8878 4.60891C12.9087 4.62558 12.9232 4.649 12.9288 4.67517L13.1691 5.59917C13.196 5.70152 13.2493 5.79499 13.3238 5.87018C13.3983 5.94537 13.4912 5.99962 13.5933 6.02749C14.1135 6.16538 14.6122 6.37396 15.0757 6.6474C15.1681 6.70214 15.2733 6.73122 15.3807 6.73163C15.488 6.73205 15.5935 6.70377 15.6863 6.64975L16.5078 6.16753C16.5318 6.15305 16.5599 6.14682 16.5878 6.14978C16.6158 6.15274 16.642 6.16473 16.6624 6.18393L17.8132 7.33473C17.8314 7.35207 17.8438 7.37463 17.8486 7.39929C17.8534 7.42396 17.8505 7.44951 17.8402 7.47243L17.348 8.31267C17.294 8.40543 17.2657 8.51093 17.2662 8.61827C17.2666 8.72561 17.2957 8.83089 17.3504 8.92322C17.6235 9.3866 17.8324 9.8849 17.9715 10.4045C17.999 10.5067 18.053 10.5997 18.1282 10.6743C18.2033 10.7488 18.2968 10.8021 18.3992 10.8287L19.325 11.0689C19.3507 11.0751 19.3735 11.0898 19.3897 11.1107C19.4059 11.1316 19.4145 11.1573 19.4141 11.1838L19.414 12.8162ZM12.4179 13.9916C12.4751 14.0481 12.5206 14.1154 12.5516 14.1897C12.5825 14.2639 12.5985 14.3436 12.5984 14.424C12.5995 14.5027 12.584 14.5807 12.5529 14.653C12.5218 14.7253 12.4758 14.7902 12.4179 14.8435C12.3642 14.901 12.2986 14.9462 12.2257 14.9759C12.1528 15.0034 12.0762 15.0196 11.9984 15.024C11.9195 15.0265 11.8411 15.0101 11.7699 14.976C11.6971 14.946 11.6316 14.9008 11.5777 14.8436C11.5201 14.79 11.4745 14.725 11.4436 14.6528C11.4127 14.5805 11.3973 14.5026 11.3984 14.424C11.3984 14.3437 11.4142 14.2641 11.4449 14.1899C11.4757 14.1157 11.5208 14.0483 11.5777 13.9916C11.6322 13.9381 11.6978 13.8973 11.7699 13.872C11.9158 13.8117 12.0798 13.8117 12.2257 13.872C12.2979 13.897 12.3636 13.9378 12.4179 13.9916ZM12.5984 9.57831V12.3633C12.5984 12.5224 12.5352 12.675 12.4226 12.7875C12.3101 12.9001 12.1575 12.9633 11.9984 12.9633C11.8392 12.9633 11.6866 12.9001 11.5741 12.7875C11.4616 12.675 11.3984 12.5224 11.3984 12.3633V9.57831C11.3984 9.41918 11.4616 9.26657 11.5741 9.15405C11.6866 9.04152 11.8392 8.97831 11.9984 8.97831C12.1575 8.97831 12.3101 9.04152 12.4226 9.15405C12.5352 9.26657 12.5984 9.41918 12.5984 9.57831Z" fill="#DF2935"/>
</svg>
