<svg width="24" height="24" viewBox="0 0 24 24" fill="none" xmlns="http://www.w3.org/2000/svg">
<path d="M17.0032 13.132C16.5112 13.1327 16.0266 13.2523 15.5907 13.4805C15.1548 13.7088 14.7806 14.039 14.4998 14.443L10.7063 12.7941C10.842 12.2734 10.842 11.7266 10.7063 11.2058L14.4998 9.55689C14.9378 10.1839 15.5934 10.6256 16.3391 10.796C17.0847 10.9664 17.8671 10.8533 18.534 10.4788C19.2009 10.1042 19.7046 9.49493 19.9472 8.76951C20.1897 8.04409 20.1537 7.2544 19.8462 6.55405C19.5386 5.85371 18.9816 5.29281 18.2834 4.98047C17.5852 4.66813 16.7957 4.6267 16.0687 4.86423C15.3416 5.10176 14.7289 5.60127 14.3497 6.26557C13.9706 6.92987 13.8521 7.71147 14.0174 8.45829L10.2333 10.1032C9.82565 9.48719 9.23038 9.01886 8.53569 8.76765C7.84101 8.51644 7.08387 8.49573 6.37649 8.70858C5.6691 8.92142 5.04911 9.35651 4.6084 9.94935C4.16768 10.5422 3.92969 11.2613 3.92969 12C3.92969 12.7387 4.16768 13.4577 4.6084 14.0506C5.04911 14.6434 5.6691 15.0785 6.37649 15.2914C7.08387 15.5042 7.84101 15.4835 8.53569 15.2323C9.23038 14.9811 9.82565 14.5127 10.2333 13.8967L14.0174 15.5416C13.8834 16.1599 13.9444 16.8044 14.1921 17.3865C14.4398 17.9685 14.862 18.4594 15.4004 18.7915C15.9388 19.1235 16.567 19.2804 17.1983 19.2404C17.8296 19.2005 18.433 18.9657 18.9252 18.5684C19.4175 18.1712 19.7744 17.631 19.9468 17.0224C20.1191 16.4137 20.0985 15.7666 19.8876 15.1702C19.6768 14.5738 19.2861 14.0575 18.7695 13.6925C18.2529 13.3274 17.6358 13.1316 17.0032 13.132ZM17.0032 5.95017C17.3709 5.9501 17.7304 6.05907 18.0361 6.2633C18.3419 6.46754 18.5802 6.75786 18.7209 7.09754C18.8617 7.43723 18.8985 7.81103 18.8268 8.17166C18.7551 8.53229 18.578 8.86355 18.318 9.12354C18.058 9.38354 17.7268 9.56059 17.3661 9.63231C17.0055 9.70402 16.6317 9.66718 16.292 9.52644C15.9523 9.38569 15.662 9.14738 15.4578 8.84162C15.2536 8.53587 15.1446 8.17642 15.1447 7.80873C15.1453 7.31599 15.3413 6.84361 15.6897 6.49519C16.0381 6.14678 16.5105 5.95077 17.0032 5.95017ZM7.37094 14.2371C6.92847 14.2371 6.49593 14.1059 6.12804 13.8601C5.76014 13.6143 5.47339 13.2649 5.30407 12.8561C5.13474 12.4473 5.09044 11.9975 5.17676 11.5635C5.26308 11.1296 5.47615 10.7309 5.78902 10.4181C6.1019 10.1052 6.50052 9.89212 6.93449 9.80579C7.36845 9.71947 7.81827 9.76378 8.22706 9.9331C8.63585 10.1024 8.98524 10.3892 9.23107 10.7571C9.47689 11.125 9.60809 11.5575 9.60809 12C9.60736 12.5931 9.37143 13.1617 8.95204 13.5811C8.53265 14.0005 7.96404 14.2364 7.37094 14.2371ZM17.0032 18.0498C16.6355 18.0498 16.2761 17.9407 15.9704 17.7365C15.6647 17.5322 15.4264 17.2418 15.2858 16.9021C15.1451 16.5624 15.1083 16.1887 15.18 15.8281C15.2518 15.4675 15.4289 15.1362 15.6889 14.8763C15.9489 14.6163 16.2802 14.4393 16.6408 14.3676C17.0014 14.2959 17.3752 14.3328 17.7148 14.4735C18.0545 14.6143 18.3448 14.8526 18.549 15.1583C18.7532 15.4641 18.8622 15.8235 18.8621 16.1912C18.8616 16.684 18.6655 17.1565 18.317 17.5049C17.9685 17.8533 17.496 18.0493 17.0032 18.0498Z" fill="#1D99FF"/>
</svg>
