<svg width="24" height="24" viewBox="0 0 24 24" fill="none" xmlns="http://www.w3.org/2000/svg">
<mask id="mask0_2662_30090" style="mask-type:alpha" maskUnits="userSpaceOnUse" x="0" y="0" width="24" height="24">
<rect x="24" y="24" width="24" height="24" transform="rotate(-180 24 24)" fill="#D9D9D9"/>
</mask>
<g mask="url(#mask0_2662_30090)">
<path d="M17.525 6.875C17.675 7.025 17.75 7.2 17.75 7.4C17.75 7.6 17.675 7.775 17.525 7.925L13.45 12L17.525 16.075C17.675 16.225 17.75 16.4 17.75 16.6C17.75 16.8 17.675 16.975 17.525 17.125C17.375 17.275 17.2 17.35 17 17.35C16.8 17.35 16.625 17.275 16.475 17.125L11.975 12.625C11.8917 12.5417 11.829 12.446 11.787 12.338C11.7457 12.2293 11.725 12.1167 11.725 12C11.725 11.8833 11.7457 11.771 11.787 11.663C11.829 11.5543 11.8917 11.4583 11.975 11.375L16.475 6.875C16.625 6.725 16.8 6.65 17 6.65C17.2 6.65 17.375 6.725 17.525 6.875ZM7 6.25C7.21667 6.25 7.396 6.32067 7.538 6.462C7.67933 6.604 7.75 6.78333 7.75 7L7.75 17C7.75 17.2167 7.67933 17.3957 7.538 17.537C7.396 17.679 7.21667 17.75 7 17.75C6.78333 17.75 6.604 17.679 6.462 17.537C6.32067 17.3957 6.25 17.2167 6.25 17L6.25 7C6.25 6.78333 6.32067 6.604 6.462 6.462C6.604 6.32067 6.78333 6.25 7 6.25Z" fill="#808080"/>
</g>
</svg>
