<svg width="24" height="24" viewBox="0 0 24 24" fill="none" xmlns="http://www.w3.org/2000/svg">
<path d="M18.6168 17.7683L15.6768 14.8283C16.5432 13.7849 17.0203 12.473 17.0266 11.1168C17.0266 9.94795 16.68 8.80536 16.0306 7.83351C15.3812 6.86165 14.4582 6.10418 13.3784 5.65689C12.2985 5.20959 11.1102 5.09256 9.96386 5.32059C8.81748 5.54862 7.76446 6.11147 6.93796 6.93796C6.11147 7.76446 5.54862 8.81748 5.32059 9.96386C5.09256 11.1102 5.20959 12.2985 5.65689 13.3784C6.10418 14.4582 6.86165 15.3812 7.83351 16.0306C8.80536 16.68 9.94795 17.0266 11.1168 17.0266C12.4731 17.0205 13.7852 16.5435 14.8288 15.6772L17.7688 18.6172C17.8814 18.7289 18.0338 18.7914 18.1925 18.791C18.3511 18.7907 18.5032 18.7275 18.6154 18.6153C18.7276 18.5031 18.7908 18.351 18.7912 18.1924C18.7915 18.0337 18.729 17.8813 18.6173 17.7686L18.6168 17.7683ZM6.40703 11.1168C6.40703 10.1853 6.68326 9.27471 7.20077 8.50019C7.71829 7.72568 8.45385 7.12201 9.31445 6.76554C10.175 6.40907 11.122 6.3158 12.0356 6.49753C12.9492 6.67926 13.7884 7.12782 14.4471 7.78649C15.1058 8.44516 15.5543 9.28436 15.7361 10.198C15.9178 11.1116 15.8245 12.0585 15.468 12.9191C15.1116 13.7797 14.5079 14.5153 13.7334 15.0328C12.9589 15.5503 12.0483 15.8266 11.1168 15.8266C9.86813 15.8251 8.67101 15.3285 7.78807 14.4455C6.90513 13.5626 6.40846 12.3655 6.40703 11.1168Z" fill="#808080"/>
</svg>
