<svg width="24" height="24" viewBox="0 0 24 24" fill="none" xmlns="http://www.w3.org/2000/svg">
<path d="M17.9425 6.05746C16.7674 4.8835 15.2707 4.08427 13.6415 3.7608C12.0122 3.43733 10.3237 3.60414 8.78926 4.24016C7.25483 4.87617 5.9434 5.95282 5.02074 7.33402C4.09809 8.71522 3.60564 10.339 3.60564 12C3.60564 13.661 4.09809 15.2847 5.02074 16.6659C5.9434 18.0471 7.25483 19.1238 8.78926 19.7598C10.3237 20.3958 12.0122 20.5626 13.6415 20.2392C15.2707 19.9157 16.7674 19.1165 17.9425 17.9425C19.5162 16.3652 20.4 14.2281 20.4 12C20.4 9.77189 19.5162 7.63477 17.9425 6.05746ZM17.0941 17.0941C16.0866 18.1017 14.8029 18.7878 13.4055 19.0658C12.008 19.3439 10.5594 19.2012 9.243 18.656C7.92658 18.1107 6.80142 17.1873 6.00979 16.0026C5.21817 14.8178 4.79564 13.425 4.79564 12.0001C4.79564 10.5752 5.21817 9.18235 6.00979 7.99762C6.80142 6.81289 7.92658 5.88951 9.243 5.34425C10.5594 4.79899 12.008 4.65635 13.4055 4.93435C14.8029 5.21236 16.0866 5.89853 17.0941 6.9061C18.4432 8.25815 19.2008 10.0901 19.2008 12.0001C19.2008 13.9101 18.4432 15.742 17.0941 17.0941ZM12.6 8.38654V13.7695C12.6 13.9286 12.5368 14.0812 12.4243 14.1938C12.3117 14.3063 12.1591 14.3695 12 14.3695C11.8409 14.3695 11.6883 14.3063 11.5757 14.1938C11.4632 14.0812 11.4 13.9286 11.4 13.7695V8.38654C11.4 8.22741 11.4632 8.0748 11.5757 7.96228C11.6883 7.84975 11.8409 7.78654 12 7.78654C12.1591 7.78654 12.3117 7.84975 12.4243 7.96228C12.5368 8.0748 12.6 8.22741 12.6 8.38654ZM12.6 15.6399C12.6 15.7586 12.5648 15.8746 12.4989 15.9733C12.4329 16.072 12.3392 16.1489 12.2296 16.1943C12.12 16.2397 11.9993 16.2516 11.8829 16.2284C11.7666 16.2053 11.6596 16.1481 11.5757 16.0642C11.4918 15.9803 11.4347 15.8734 11.4115 15.757C11.3884 15.6406 11.4003 15.52 11.4457 15.4103C11.4911 15.3007 11.568 15.207 11.6667 15.1411C11.7653 15.0751 11.8813 15.0399 12 15.0399C12.1591 15.0399 12.3117 15.1032 12.4243 15.2157C12.5368 15.3282 12.6 15.4808 12.6 15.6399Z" fill="#DF2935"/>
</svg>
