<svg width="24" height="24" viewBox="0 0 24 24" fill="none" xmlns="http://www.w3.org/2000/svg">
<mask id="mask0_1522_25567" style="mask-type:alpha" maskUnits="userSpaceOnUse" x="0" y="0" width="24" height="24">
<rect width="24" height="24" fill="#D9D9D9"/>
</mask>
<g mask="url(#mask0_1522_25567)">
<path d="M12 13.05L6.925 18.125C6.79167 18.2584 6.621 18.329 6.413 18.337C6.20433 18.3457 6.025 18.275 5.875 18.125C5.725 17.975 5.65 17.8 5.65 17.6C5.65 17.4 5.725 17.225 5.875 17.075L10.95 12L5.875 6.92502C5.74167 6.79169 5.671 6.62069 5.663 6.41202C5.65433 6.20402 5.725 6.02502 5.875 5.87502C6.025 5.72502 6.2 5.65002 6.4 5.65002C6.6 5.65002 6.775 5.72502 6.925 5.87502L12 10.95L17.075 5.87502C17.2083 5.74169 17.3793 5.67069 17.588 5.66202C17.796 5.65402 17.975 5.72502 18.125 5.87502C18.275 6.02502 18.35 6.20002 18.35 6.40002C18.35 6.60002 18.275 6.77502 18.125 6.92502L13.05 12L18.125 17.075C18.2583 17.2084 18.329 17.379 18.337 17.587C18.3457 17.7957 18.275 17.975 18.125 18.125C17.975 18.275 17.8 18.35 17.6 18.35C17.4 18.35 17.225 18.275 17.075 18.125L12 13.05Z" fill="#07A56A"/>
</g>
</svg>
