<svg width="24" height="24" viewBox="0 0 24 24" fill="none" xmlns="http://www.w3.org/2000/svg">
<path d="M15.361 9.86547C15.4264 9.90944 15.4826 9.96591 15.5261 10.0316C15.5697 10.0974 15.5999 10.171 15.6149 10.2485C15.6299 10.3259 15.6295 10.4055 15.6137 10.4828C15.5978 10.56 15.5669 10.6334 15.5226 10.6986L12.9691 14.4832C12.786 14.7568 12.5402 14.9826 12.2521 15.142C11.9641 15.3014 11.6422 15.3897 11.3131 15.3996L11.2523 15.4002C10.933 15.4002 10.6181 15.3262 10.3323 15.1841C10.0464 15.042 9.79732 14.8356 9.60456 14.5811L8.496 13.116C8.44588 13.0535 8.40881 12.9815 8.38698 12.9044C8.36515 12.8272 8.35899 12.7465 8.36888 12.6669C8.37877 12.5874 8.40449 12.5106 8.44454 12.4412C8.4846 12.3717 8.53816 12.311 8.60206 12.2626C8.66597 12.2142 8.73893 12.1791 8.81663 12.1594C8.89433 12.1397 8.97519 12.1357 9.05445 12.1477C9.1337 12.1598 9.20974 12.1876 9.27807 12.2295C9.3464 12.2714 9.40564 12.3266 9.45228 12.3918L10.5608 13.8573C10.6479 13.9633 10.7571 14.0489 10.8808 14.1082C11.0045 14.1675 11.1397 14.1991 11.2769 14.2006C11.4154 14.1973 11.5511 14.1605 11.6723 14.0934C11.7935 14.0262 11.8966 13.9307 11.9729 13.815L14.5289 10.0276C14.618 9.89616 14.7556 9.80534 14.9115 9.77497C15.0674 9.74459 15.229 9.77713 15.361 9.86547ZM17.9425 17.9426C16.7672 19.1179 15.2698 19.9183 13.6396 20.2425C12.0093 20.5668 10.3196 20.4004 8.78397 19.7643C7.24835 19.1282 5.93584 18.051 5.0124 16.669C4.08897 15.287 3.59608 13.6622 3.59608 12C3.59608 10.3379 4.08897 8.71307 5.0124 7.33105C5.93584 5.94903 7.24835 4.87187 8.78397 4.23579C10.3196 3.59971 12.0093 3.43328 13.6396 3.75755C15.2698 4.08181 16.7672 4.8822 17.9425 6.05751C18.726 6.83618 19.3477 7.76207 19.772 8.78192C20.1962 9.80177 20.4146 10.8955 20.4146 12C20.4146 13.1046 20.1962 14.1983 19.772 15.2181C19.3477 16.238 18.726 17.1639 17.9425 17.9426ZM17.0941 6.90591C16.0866 5.89835 14.8029 5.21218 13.4055 4.93417C12.008 4.65616 10.5594 4.79881 9.243 5.34406C7.92658 5.88932 6.80142 6.8127 6.0098 7.99743C5.21817 9.18217 4.79564 10.575 4.79564 11.9999C4.79564 13.4248 5.21817 14.8177 6.0098 16.0024C6.80142 17.1871 7.92658 18.1105 9.243 18.6558C10.5594 19.201 12.008 19.3437 13.4055 19.0657C14.8029 18.7877 16.0866 18.1015 17.0941 17.0939C18.4426 15.7416 19.1999 13.9097 19.1999 11.9999C19.1999 10.0901 18.4426 8.25824 17.0941 6.90591Z" fill="#07A56A"/>
</svg>
